<svg width="48" height="52" viewBox="0 0 48 52" fill="none" xmlns="http://www.w3.org/2000/svg">
<g clip-path="url(#clip0_307_2)">
<path d="M45.8466 26.0001C43.7103 37.818 37.3012 49.6363 37.3012 49.6363C37.3012 49.6363 35.1646 51.9998 24.483 51.9998C13.8011 51.9998 11.6649 49.6363 11.6649 49.6363C11.6649 49.6363 5.25577 37.818 3.11914 26.0001H45.8466Z" fill="#C82E25"/>
<path d="M28.9133 51.8431L28.6191 47.1274C31.6903 46.892 33.397 46.4246 34.2126 46.1277C35.3881 43.7884 38.3447 37.5943 40.3319 30.7271H33.0485V26.0001H45.9469L45.2459 28.9626C43.0564 38.2119 38.8035 46.789 37.5529 49.1988L37.22 49.8384L36.618 50.1544C35.7054 50.6348 33.4917 51.4934 28.9133 51.8431Z" fill="#AF0A00"/>
<path d="M23.6988 51.989C23.7008 51.9886 23.7066 51.9808 23.709 51.9808C27.0258 46.8552 31.6942 37.8111 33.0285 26.0001H3.11914C5.25577 37.818 11.6649 49.6363 11.6649 49.6363C11.6649 49.6363 13.7162 51.8734 23.6988 51.989Z" fill="#D2514A"/>
<path d="M24.4705 42.5454C20.0913 42.5454 16.3735 40.7658 14.0245 37.6046C13.2405 37.7509 12.4468 37.8223 11.6523 37.818V33.091C12.6639 33.091 13.5245 32.956 14.2099 32.6894L15.8509 32.051L16.7478 33.6991C17.5858 35.2377 19.7044 37.818 24.4705 37.818C28.2196 37.818 30.3245 36.1968 31.4304 34.8361L34.6075 37.9981C32.2229 40.9307 28.6233 42.5454 24.4705 42.5454Z" fill="#C82E25"/>
<path d="M37.3089 37.818C35.8138 37.818 34.4767 37.5929 33.3345 37.1489L34.7509 32.6894C36.0477 33.1936 38.2778 33.3459 39.6203 32.4678L41.7965 36.5347C40.4966 37.3865 38.9862 37.818 37.3089 37.818Z" fill="#AF0A00"/>
<path d="M43.7215 18.9092C43.7215 18.9092 41.5849 0 24.4943 0C7.40323 0 5.267 18.9092 5.267 18.9092C5.267 18.9092 0.994141 18.9092 0.994141 23.6362C0.994141 28.3636 7.40323 28.3636 7.40323 28.3636C7.40323 28.3636 7.40323 33.0911 11.6761 33.0911C15.9486 33.0911 15.9486 30.7271 15.9486 30.7271C15.9486 33.0911 18.0852 37.818 24.4943 37.818C30.9034 37.818 33.0396 33.0911 33.0396 30.7271C33.0396 30.7271 33.0396 33.0911 37.3125 33.0911C41.5849 33.0911 41.5849 28.3636 41.5849 28.3636C41.5849 28.3636 47.994 28.3636 47.994 23.6362C47.994 18.9092 43.7215 18.9092 43.7215 18.9092Z" fill="#FDCF6D"/>
<path d="M37.3188 30.7272C39.1558 30.7272 39.4457 29.2375 39.4551 28.3498L39.4594 26.0071L41.5862 26.0002C41.6257 26.0002 45.8642 25.857 45.8642 23.6363C45.8642 21.6039 44.5173 21.2832 43.7154 21.2728L43.7405 18.9093C45.861 18.937 48.0004 20.4094 48.0004 23.6363C48.0004 27.3748 43.8093 28.3624 41.5913 28.3637V28.3659C41.5663 30.7237 40.2355 33.0911 37.3188 33.0911V30.7272Z" fill="#FDBC34"/>
<path d="M13.9695 49.1101C9.66654 41.9694 7.52483 34.9421 7.43604 34.6466L9.46196 33.8987C9.48269 33.9679 11.6099 40.9333 15.747 47.7992L13.9695 49.1101Z" fill="#D96C66"/>
<path d="M18.0852 7.09088C7.40323 7.09088 5.267 18.9092 5.267 18.9092C5.267 18.9092 0.994141 18.9092 0.994141 23.6362C0.994141 28.3636 7.40323 28.3636 7.40323 28.3636C7.40323 28.3636 7.40323 33.091 11.6761 33.091C15.9486 33.091 15.9486 30.7271 15.9486 30.7271C15.9486 33.091 18.0852 37.818 24.4943 37.818C33.0396 37.818 35.1758 7.09088 18.0852 7.09088Z" fill="#FEE3AA"/>
<path d="M24.4943 37.818C19.0052 37.818 16.6726 34.3652 16.0968 31.909H15.4459C14.8419 32.5725 13.6547 33.091 11.6761 33.091C8.75945 33.091 7.42827 30.7202 7.40323 28.3705L7.3958 28.3636C5.18759 28.3636 0.994141 27.3755 0.994141 23.6362C0.994141 20.4093 3.13663 18.9369 5.26074 18.9092L6.12329 18.8988L6.14637 21.2623L5.2846 21.2727C4.48034 21.2831 3.13037 21.6038 3.13037 23.6362C3.13037 25.8568 7.36881 26.0001 7.41145 26.0001L9.51443 26.0209L9.53947 28.3428C9.54885 29.2339 9.83911 30.7271 11.6761 30.7271C13.0687 30.7271 13.6633 30.4306 13.8593 30.299L13.9614 29.5456H18.0852V30.7271C18.0852 31.7255 19.1731 35.4545 24.4943 35.4545V37.818Z" fill="#FDCF6D"/>
<path d="M22.3662 7.09091C22.3662 8.39622 21.4098 9.4544 20.23 9.4544C19.0502 9.4544 18.0938 8.39622 18.0938 7.09091C18.0938 5.7856 19.0502 4.72742 20.23 4.72742C21.4098 4.72742 22.3662 5.7856 22.3662 7.09091Z" fill="#993B17"/>
<path d="M33.0247 4.72739C33.0247 6.0327 32.0683 7.09088 30.8885 7.09088C29.7084 7.09088 28.752 6.0327 28.752 4.72739C28.752 3.42165 29.7084 2.36346 30.8885 2.36346C32.0683 2.36346 33.0247 3.42165 33.0247 4.72739Z" fill="#993B17"/>
<path d="M28.7744 23.6362C28.7744 24.9419 27.818 26.0001 26.6382 26.0001C25.4584 26.0001 24.502 24.9419 24.502 23.6362C24.502 22.3309 25.4584 21.2727 26.6382 21.2727C27.818 21.2727 28.7744 22.3309 28.7744 23.6362Z" fill="#AD6143"/>
<path d="M39.433 14.1818C39.433 15.4871 38.4766 16.5453 37.2968 16.5453C36.1166 16.5453 35.1602 15.4871 35.1602 14.1818C35.1602 12.8765 36.1166 11.8183 37.2968 11.8183C38.4766 11.8183 39.433 12.8765 39.433 14.1818Z" fill="#993B17"/>
<path d="M15.9247 16.5453C15.9247 17.851 14.9683 18.9092 13.7885 18.9092C12.6088 18.9092 11.6523 17.851 11.6523 16.5453C11.6523 15.2399 12.6088 14.1818 13.7885 14.1818C14.9683 14.1818 15.9247 15.2399 15.9247 16.5453Z" fill="#AD6143"/>
<path d="M29.8374 12.9998C29.8374 14.3056 28.881 15.3638 27.7011 15.3638C26.5209 15.3638 25.5645 14.3056 25.5645 12.9998C25.5645 11.6945 26.5209 10.6364 27.7011 10.6364C28.881 10.6364 29.8374 11.6945 29.8374 12.9998Z" fill="#FDCF6D"/>
<path d="M33.0247 14.1818C33.0247 15.4871 32.0683 16.5453 30.8885 16.5453C29.7084 16.5453 28.752 15.4871 28.752 14.1818C28.752 12.8765 29.7084 11.8183 30.8885 11.8183C32.0683 11.8183 33.0247 12.8765 33.0247 14.1818Z" fill="#FDCF6D"/>
<path d="M22.355 17.7273C22.355 18.3799 21.877 18.9092 21.2871 18.9092C20.6972 18.9092 20.2188 18.3799 20.2188 17.7273C20.2188 17.0746 20.6972 16.5453 21.2871 16.5453C21.877 16.5453 22.355 17.0746 22.355 17.7273Z" fill="#FDCF6D"/>
<path d="M43.7162 26.0002C43.7162 27.3055 42.7598 28.3636 41.5796 28.3636C40.3998 28.3636 39.4434 27.3055 39.4434 26.0002C39.4434 24.6944 40.3998 23.6362 41.5796 23.6362C42.7598 23.6362 43.7162 24.6944 43.7162 26.0002Z" fill="#FDBC34"/>
<path d="M30.8997 30.7271C30.8997 32.0329 29.9433 33.0911 28.7631 33.0911C27.5834 33.0911 26.627 32.0329 26.627 30.7271C26.627 29.4218 27.5834 28.3636 28.7631 28.3636C29.9433 28.3636 30.8997 29.4218 30.8997 30.7271Z" fill="#FDCF6D"/>
<path d="M37.308 23.6362C37.308 24.9419 36.3516 26.0001 35.1714 26.0001C33.9916 26.0001 33.0352 24.9419 33.0352 23.6362C33.0352 22.3309 33.9916 21.2727 35.1714 21.2727C36.3516 21.2727 37.308 22.3309 37.308 23.6362Z" fill="#FDBC34"/>
<path d="M15.9466 29.5456C15.9466 30.1983 15.4687 30.7271 14.8788 30.7271C14.2889 30.7271 13.8105 30.1983 13.8105 29.5456C13.8105 28.893 14.2889 28.3636 14.8788 28.3636C15.4687 28.3636 15.9466 28.893 15.9466 29.5456Z" fill="#FDCF6D"/>
<path d="M22.333 26.0002C22.333 27.3055 21.3766 28.3636 20.1968 28.3636C19.017 28.3636 18.0605 27.3055 18.0605 26.0002C18.0605 24.6944 19.017 23.6362 20.1968 23.6362C21.3766 23.6362 22.333 24.6944 22.333 26.0002Z" fill="#FDCF6D"/>
<path d="M11.6752 11.8183C11.6752 13.1236 10.7188 14.1818 9.53858 14.1818C8.35878 14.1818 7.40234 13.1236 7.40234 11.8183C7.40234 10.5125 8.35878 9.45435 9.53858 9.45435C10.7188 9.45435 11.6752 10.5125 11.6752 11.8183Z" fill="#FDCF6D"/>
<path d="M15.9466 8.27284C15.9466 8.9255 15.4687 9.45437 14.8788 9.45437C14.2889 9.45437 13.8105 8.9255 13.8105 8.27284C13.8105 7.62019 14.2889 7.09088 14.8788 7.09088C15.4687 7.09088 15.9466 7.62019 15.9466 8.27284Z" fill="#FDCF6D"/>
</g>
<defs>
<clipPath id="clip0_307_2">
<rect width="47" height="52" fill="white" transform="translate(0.994141)"/>
</clipPath>
</defs>
</svg>
