<svg width="48" height="47" viewBox="0 0 48 47" fill="none" xmlns="http://www.w3.org/2000/svg">
<g clip-path="url(#clip0_307_3659)">
<path d="M1.02734 46.9999L48.0272 32.0455C48.0272 14.3473 33.6799 0 15.9818 0L1.02734 46.9999Z" fill="#F59707"/>
<path d="M25.6218 21.3616C24.2049 21.3659 22.8452 20.8034 21.8457 19.7988L23.3561 18.2885C24.566 19.4964 26.6815 19.4964 27.8875 18.2885C29.1365 17.0363 29.1365 15.0092 27.8875 13.7571L29.3978 12.2467C30.9258 13.7735 31.3831 16.0705 30.5561 18.0663C29.7296 20.0617 27.7819 21.3624 25.6218 21.3616Z" fill="#EF7F00"/>
<path d="M3.68359 41.6653L45.2261 28.4705L46.5197 32.543L4.97723 45.7379L3.68359 41.6653Z" fill="#E76400"/>
<path d="M39.4684 32.0454C39.4684 19.0876 28.9261 8.54529 15.9683 8.54529C15.0834 8.54412 14.2212 8.26599 13.5023 7.74963L12.1836 11.895C13.356 12.4935 14.6519 12.8095 15.9683 12.8182C26.5708 12.8182 35.1955 21.4441 35.1955 32.0454C35.2037 33.3617 35.5202 34.6577 36.1187 35.8301L40.2637 34.5114C39.7477 33.7924 39.4696 32.9303 39.4684 32.0454Z" fill="#E76400"/>
<path d="M15.9916 0C13.632 0 11.7188 1.91287 11.7188 4.27286C11.7188 6.63245 13.632 8.54532 15.9916 8.54532C28.9702 8.54532 39.4917 19.0669 39.4917 32.0455C39.4917 34.405 41.4046 36.3183 43.7642 36.3183C46.1242 36.3183 48.0371 34.405 48.0371 32.0455C48.0371 14.3473 33.6898 0 15.9916 0Z" fill="#FDCF6D"/>
<path d="M48.0216 32.0454C48.0216 34.405 46.1088 36.3183 43.7489 36.3183C41.3894 36.3183 39.4766 34.405 39.4766 32.0454C39.4766 29.6858 41.3894 27.7726 43.7489 27.7726C46.1088 27.7726 48.0216 29.6858 48.0216 32.0454Z" fill="#FDBC34"/>
<path d="M45.8744 32.0455C45.8744 33.2253 44.918 34.1818 43.7378 34.1818C42.558 34.1818 41.6016 33.2253 41.6016 32.0455C41.6016 30.8657 42.558 29.9093 43.7378 29.9093C44.918 29.9093 45.8744 30.8657 45.8744 32.0455Z" fill="#FDAB00"/>
<path d="M14.9062 17.091V12.8181C15.4965 12.8185 15.9757 12.3401 15.9757 11.7498C15.9757 11.1595 15.4965 10.6811 14.9062 10.6819V6.40906C17.8561 6.40906 20.2474 8.80034 20.2474 11.7498C20.2474 14.6997 17.8561 17.091 14.9062 17.091Z" fill="#C82E25"/>
<path d="M10.6517 32.0455C7.70184 32.0455 5.31055 29.6542 5.31055 26.7047C5.31055 23.7548 7.70184 21.3635 10.6517 21.3635V25.6364C10.0618 25.6364 9.58343 26.1148 9.58343 26.7047C9.58343 27.2946 10.0618 27.7726 10.6517 27.7726V32.0455Z" fill="#C82E25"/>
<path d="M32.034 27.7725C29.0858 27.7694 26.6965 25.3801 26.6934 22.4318H30.9657C30.9653 23.0221 31.4437 23.5009 32.034 23.5009C32.6243 23.5009 33.1027 23.0221 33.1023 22.4318H37.3747C37.3715 25.3801 34.9823 27.7694 32.034 27.7725Z" fill="#C82E25"/>
<path d="M18.1427 32.0434C16.4427 32.0485 14.8107 31.3729 13.6113 30.1677L15.1221 28.6574C16.7325 30.2679 19.5533 30.2679 21.1638 28.6574C22.8302 26.9878 22.8302 24.2848 21.1638 22.6152L22.6741 21.1049C24.5076 22.9371 25.056 25.6938 24.064 28.0886C23.072 30.483 20.7347 32.0442 18.1427 32.0434Z" fill="#EF7F00"/>
<path d="M22.3891 25.6365C22.3891 27.9961 20.4762 29.9094 18.1162 29.9094C15.7566 29.9094 13.8438 27.9961 13.8438 25.6365C13.8438 23.2769 15.7566 21.3636 18.1162 21.3636C20.4762 21.3636 22.3891 23.2769 22.3891 25.6365Z" fill="#8B2800"/>
<path d="M28.8192 33.1138C28.8192 34.8835 27.3844 36.3184 25.6147 36.3184C23.845 36.3184 22.4102 34.8835 22.4102 33.1138C22.4102 31.3438 23.845 29.9093 25.6147 29.9093C27.3844 29.9093 28.8192 31.3438 28.8192 33.1138Z" fill="#8B2800"/>
<path d="M9.58344 38.4546C9.58344 39.6344 8.627 40.5908 7.44719 40.5908C6.26699 40.5908 5.31055 39.6344 5.31055 38.4546C5.31055 37.2748 6.26699 36.3184 7.44719 36.3184C8.627 36.3184 9.58344 37.2748 9.58344 38.4546Z" fill="#8B2800"/>
<path d="M28.8192 16.0228C28.8192 17.7925 27.3844 19.2273 25.6147 19.2273C23.845 19.2273 22.4102 17.7925 22.4102 16.0228C22.4102 14.2531 23.845 12.8182 25.6147 12.8182C27.3844 12.8182 28.8192 14.2531 28.8192 16.0228Z" fill="#8B2800"/>
<path d="M39.5292 24.0184C39.5104 23.9453 37.4219 16.0935 29.6382 10.254C24.0553 6.06794 14.865 5.49526 14.7734 5.49017L15.0195 1.22357C15.447 1.24861 25.5989 1.88388 32.2001 6.83661C41.2484 13.6224 43.5787 22.6027 43.6726 22.9814L39.5292 24.0184Z" fill="#FEE3AA"/>
</g>
<defs>
<clipPath id="clip0_307_3659">
<rect width="47" height="47" fill="white" transform="translate(0.994141)"/>
</clipPath>
</defs>
</svg>
