<svg width="20" height="20" viewBox="0 0 20 20" fill="none" xmlns="http://www.w3.org/2000/svg">
<g clip-path="url(#clip0_307_5547)">
<path d="M3.98816 1.98816C3.67559 2.30072 3.5 2.72464 3.5 3.16667V4C3.5 10.9033 9.09667 16.5 16 16.5H16.8333C17.2754 16.5 17.6993 16.3244 18.0118 16.0118C18.3244 15.6993 18.5 15.2754 18.5 14.8333V12.1008C18.5 11.9259 18.445 11.7553 18.3427 11.6134C18.2404 11.4714 18.096 11.3653 17.93 11.31L14.1858 10.0617C13.9956 9.99841 13.7888 10.0059 13.6036 10.0827C13.4184 10.1596 13.2671 10.3006 13.1775 10.48L12.2358 12.3608C10.1954 11.4389 8.5611 9.80462 7.63917 7.76417L9.52 6.8225C9.69938 6.73288 9.84042 6.58158 9.91726 6.39637C9.9941 6.21116 10.0016 6.00445 9.93833 5.81417L8.69 2.07C8.63475 1.90413 8.52874 1.75984 8.38696 1.65754C8.24519 1.55525 8.07483 1.50013 7.9 1.5H5.16667C4.72464 1.5 4.30072 1.67559 3.98816 1.98816Z" stroke="#8BAC3E" stroke-width="2" stroke-linecap="round" stroke-linejoin="round"/>
</g>
<defs>
<clipPath id="clip0_307_5547">
<rect width="20" height="20" fill="white"/>
</clipPath>
</defs>
</svg>
